<svg xmlns="http://www.w3.org/2000/svg" viewBox="0 0 280 72" fill="#00f5b8">
  <!-- J -->
  <path d="M0 8h14v40c0 8.8-7.2 16-16 16H0v-12h2c2.2 0 4-1.8 4-4V20H0V8z"/>
  <!-- e (stylized circle) -->
  <path d="M28 36c0-15.5 12.5-28 28-28s28 12.5 28 28-12.5 28-28 28-28-12.5-28-28zm14 0c0 7.7 6.3 14 14 14s14-6.3 14-14-6.3-14-14-14-14 6.3-14 14z"/>
  <!-- L -->
  <path d="M112 8h14v44h24v12h-38V8z"/>
  <!-- a -->
  <path d="M164 28c0-11 9-20 20-20s20 9 20 20v36h-14V28c0-3.3-2.7-6-6-6s-6 2.7-6 6v36h-14V28z"/>
  <!-- b -->
  <path d="M218 0h14v12c4-3 9-4 14-4 13.3 0 24 10.7 24 24s-10.7 24-24 24c-5 0-10-1.5-14-4v12h-14V0zm14 32c0 6.6 5.4 12 12 12s12-5.4 12-12-5.4-12-12-12-12 5.4-12 12z"/>
  <!-- s -->
  <path d="M260 22c0-7.7 6.3-14 14-14h6v12h-4c-1.1 0-2 .9-2 2s.9 2 2 2h2c5.5 0 10 4.5 10 10v2c0 7.7-6.3 14-14 14h-6V38h4c1.1 0 2-.9 2-2s-.9-2-2-2h-2c-5.5 0-10-4.5-10-10v-2z"/>
</svg>